<!DOCTYPE svg PUBLIC "-//W3C//DTD SVG 1.1//EN" "http://www.w3.org/Graphics/SVG/1.1/DTD/svg11.dtd">
<!-- Uploaded to: SVG Repo, www.svgrepo.com, Transformed by: SVG Repo Mixer Tools -->
<svg version="1.0" id="Layer_1" xmlns="http://www.w3.org/2000/svg" xmlns:xlink="http://www.w3.org/1999/xlink" width="800px" height="800px" viewBox="0 0 64 64" enable-background="new 0 0 64 64" xml:space="preserve" fill="#000000">
<g id="SVGRepo_bgCarrier" stroke-width="0"/>
<g id="SVGRepo_tracerCarrier" stroke-linecap="round" stroke-linejoin="round"/>
<g id="SVGRepo_iconCarrier"> <g> <path fill="#000000" d="M50.775,36.189L27.808,13.223c-1.366,0.954-3.259,1.444-5.659,1.444c-5.429,0-11.304-2.48-11.362-2.506 C10.534,12.054,10.267,12,10,12c-0.332,0-0.662,0.082-0.96,0.246c-0.538,0.295-0.912,0.82-1.013,1.425l-8,48 c-0.048,0.284-0.023,0.569,0.049,0.84l22.757-22.758C22.309,38.963,22,38.018,22,37c0-2.757,2.243-5,5-5s5,2.243,5,5s-2.243,5-5,5 c-1.018,0-1.962-0.309-2.753-0.833L1.49,63.926C1.656,63.969,1.826,64,2,64c0.109,0,0.219-0.009,0.329-0.027l48-8 c0.605-0.101,1.131-0.475,1.426-1.013c0.295-0.539,0.325-1.184,0.083-1.748C50.405,49.868,47.628,40.697,50.775,36.189z"/> <rect x="25.358" y="21.379" transform="matrix(-0.7071 -0.7071 0.7071 -0.7071 54.935 67.7548)" fill="#000000" width="32.284" height="2.243"/> <circle fill="#000000" cx="27" cy="37" r="3"/> <path fill="#000000" d="M63.414,20.586l-20-20C43.023,0.195,42.512,0,42,0s-1.023,0.195-1.414,0.586l-8.293,8.293l22.828,22.828 l8.293-8.293C64.195,22.633,64.195,21.367,63.414,20.586z"/> </g> </g>
</svg>