<svg xmlns="http://www.w3.org/2000/svg" viewBox="0 0 512 512" id="Telephone"><path fill="#000000" d="m375.252 278.742-22.71-26.71c-14.657-17.242-12.402-31.306-11.798-53.712.123-4.58-2.856-8.703-7.262-9.961l-26.271-7.497c-5.379-1.534-11.133 1.593-12.387 7.044-4.363 18.975-20.091 37.075-38.823 37.075-18.793 0-34.56-17.683-38.867-36.564-1.226-5.378-6.89-8.488-12.219-7.066l-26.622 7.1c-4.495 1.199-7.557 5.355-7.425 10.007.593 20.853 2.493 36.918-11.8 53.811l-22.84 26.995a68.992 68.992 0 0 0-16.322 44.562V380.6c0 15.754 12.771 28.525 28.525 28.525h214.425c16.148 0 29.238-13.09 29.238-29.237v-55.335a70.721 70.721 0 0 0-16.842-45.811zm-119.253 80.09c-27.149 0-49.158-22.009-49.158-49.16 0-27.15 22.009-49.16 49.158-49.16 27.151 0 49.16 22.01 49.16 49.16 0 27.151-22.009 49.16-49.16 49.16z" class="color173042 svgShape"></path><path fill="#000000" d="M433.266 155.072c-36.898-30.672-105.514-52.2-177.265-52.197-71.753-.003-140.368 21.525-177.266 52.197-12.63 10.498-20.653 44.044-9.278 66.124 8.248 16.007 17.986 22.839 35.404 17.529l29.042-11.936c11.379-2.907 14.246-10.265 11.852-23.165-5.258-28.322 2.594-37.345 28.058-43.806 23.761-6.03 56.634-6.752 82.187-6.752 25.551 0 58.423.722 82.186 6.752 25.463 6.461 33.314 15.484 28.057 43.806-2.394 12.9.473 20.258 11.852 23.165l29.041 11.936c17.42 5.31 27.159-1.522 35.405-17.529 11.377-22.079 3.353-55.626-9.275-66.124z" class="color173042 svgShape"></path></svg>