<?xml version="1.0" encoding="iso-8859-1"?>
<!-- Uploaded to: SVG Repo, www.svgrepo.com, Generator: SVG Repo Mixer Tools -->
<svg fill="#000000" version="1.1" id="Capa_1" xmlns="http://www.w3.org/2000/svg" xmlns:xlink="http://www.w3.org/1999/xlink" 
	 viewBox="0 0 60 60" xml:space="preserve">
<g>
	<path d="M36,17h-2c-0.552,0-1,0.447-1,1s0.448,1,1,1h2c0.552,0,1-0.447,1-1S36.552,17,36,17z"/>
	<path d="M30,17h-7c-0.552,0-1,0.447-1,1s0.448,1,1,1h7c0.552,0,1-0.447,1-1S30.552,17,30,17z"/>
	<path d="M18.29,17.29C18.11,17.479,18,17.74,18,18c0,0.27,0.11,0.52,0.29,0.71C18.48,18.89,18.74,19,19,19
		c0.26,0,0.52-0.11,0.71-0.29C19.89,18.52,20,18.26,20,18s-0.11-0.521-0.29-0.71C19.34,16.92,18.66,16.92,18.29,17.29z"/>
	<circle cx="16" cy="45" r="2"/>
	<rect x="15" y="52" width="30" height="2"/>
	<circle cx="35" cy="45" r="2"/>
	<path d="M59,20c-0.553,0-1,0.447-1,1v4h-1v-0.59c0-1.329-1.081-2.41-2.41-2.41H49V0H11v22H5.411C4.082,22,3,23.081,3,24.41V25H2v-4
		c0-0.553-0.448-1-1-1s-1,0.447-1,1v10c0,0.553,0.448,1,1,1s1-0.447,1-1v-4h1v0.59C3,28.919,4.082,30,5.411,30H6v4H2v5H1v2h1h2h1v-2
		H4v-3h2v10c0,1.859,1.28,3.411,3,3.858v6.527C9,58.378,10.622,60,12.615,60h34.77C49.378,60,51,58.378,51,56.385v-6.527
		c1.721-0.447,3-1.999,3-3.858V30h0.59c1.329,0,2.41-1.081,2.41-2.41V27h1v4c0,0.553,0.447,1,1,1s1-0.447,1-1V21
		C60,20.447,59.553,20,59,20z M13,2h34v20H13V2z M40,28c-0.552,0-1,0.447-1,1v6h-2v-5c0-0.553-0.448-1-1-1s-1,0.447-1,1v5h-2v-4
		c0-0.553-0.448-1-1-1s-1,0.447-1,1v4h-2v-4c0-0.553-0.448-1-1-1s-1,0.447-1,1v4h-2v-5c0-0.553-0.448-1-1-1s-1,0.447-1,1v5h-2v-6
		c0-0.553-0.448-1-1-1s-1,0.447-1,1v5.829c-1.053-0.293-1.939-0.965-2.466-1.871c-0.059-0.103-0.12-0.204-0.17-0.313
		c-0.042-0.091-0.074-0.186-0.108-0.28c-0.049-0.133-0.092-0.269-0.127-0.408c-0.027-0.11-0.048-0.22-0.065-0.331
		c-0.022-0.141-0.036-0.285-0.044-0.431c-0.005-0.107-0.01-0.215-0.007-0.322c0.005-0.144,0.023-0.284,0.043-0.424
		c0.016-0.115,0.027-0.23,0.053-0.344c0.02-0.088,0.053-0.169,0.079-0.255c0.046-0.15,0.088-0.301,0.153-0.447
		c0.051-0.116,0.115-0.223,0.176-0.332c0.037-0.067,0.069-0.138,0.11-0.203c0.071-0.112,0.152-0.214,0.233-0.317
		c0.059-0.075,0.118-0.15,0.183-0.221c0.083-0.092,0.169-0.18,0.259-0.264c0.084-0.077,0.174-0.148,0.264-0.218
		c0.087-0.067,0.171-0.139,0.263-0.199c0.171-0.111,0.351-0.208,0.539-0.293c0.08-0.036,0.164-0.063,0.246-0.094
		c0.145-0.054,0.292-0.101,0.445-0.138c0.077-0.019,0.154-0.038,0.232-0.052C19.521,27.03,19.757,27,20,27h20
		c0.243,0,0.479,0.03,0.71,0.072c0.078,0.014,0.155,0.033,0.232,0.052c0.152,0.037,0.3,0.084,0.445,0.138
		c0.082,0.031,0.166,0.058,0.246,0.094c0.188,0.084,0.368,0.182,0.539,0.293c0.092,0.06,0.176,0.132,0.263,0.199
		c0.09,0.07,0.18,0.141,0.264,0.218c0.09,0.083,0.176,0.172,0.259,0.264c0.064,0.071,0.124,0.146,0.183,0.221
		c0.08,0.103,0.162,0.205,0.233,0.317c0.041,0.065,0.073,0.136,0.11,0.203c0.061,0.109,0.125,0.216,0.176,0.332
		c0.064,0.146,0.107,0.297,0.153,0.447c0.026,0.085,0.059,0.167,0.079,0.255c0.027,0.113,0.037,0.229,0.053,0.344
		c0.02,0.14,0.038,0.28,0.043,0.424c0.003,0.107-0.002,0.214-0.007,0.322c-0.007,0.146-0.021,0.29-0.044,0.431
		c-0.018,0.11-0.038,0.221-0.065,0.331c-0.035,0.14-0.078,0.275-0.127,0.408c-0.035,0.094-0.066,0.19-0.108,0.28
		c-0.049,0.109-0.111,0.209-0.17,0.313c-0.527,0.906-1.414,1.578-2.466,1.871V29C41,28.447,40.552,28,40,28z M39,45
		c0,2.206-1.794,4-4,4s-4-1.794-4-4s1.794-4,4-4S39,42.794,39,45z M29,45c0,2.206-1.794,4-4,4s-4-1.794-4-4s1.794-4,4-4
		S29,42.794,29,45z M12,45c0-2.206,1.794-4,4-4s4,1.794,4,4s-1.794,4-4,4S12,47.206,12,45z M47,54.212
		C47,55.198,46.198,56,45.212,56H14.788C13.802,56,13,55.198,13,54.212v-2.424C13,50.802,13.802,50,14.788,50h30.424
		C46.198,50,47,50.802,47,51.788V54.212z M44,49c-2.206,0-4-1.794-4-4s1.794-4,4-4s4,1.794,4,4S46.206,49,44,49z"/>
	<circle cx="25" cy="45" r="2"/>
	<circle cx="44" cy="45" r="2"/>
</g>
</svg>